<?xml version="1.0" standalone="no"?>
<!DOCTYPE svg PUBLIC "-//W3C//DTD SVG 20010904//EN"
 "http://www.w3.org/TR/2001/REC-SVG-20010904/DTD/svg10.dtd">
<svg version="1.0" xmlns="http://www.w3.org/2000/svg"
 width="260.000000pt" height="260.000000pt" viewBox="0 0 260.000000 260.000000"
 preserveAspectRatio="xMidYMid meet">
<metadata>
Created by potrace 1.11, written by Peter Selinger 2001-2013
</metadata>
<g transform="translate(0.000000,260.000000) scale(0.100000,-0.100000)"
fill="#000000" stroke="none">
<path d="M0 1300 l0 -1300 1300 0 1300 0 0 1300 0 1300 -1300 0 -1300 0 0
-1300z m1378 1150 c141 -54 329 -166 471 -281 241 -194 401 -413 485 -659 43
-126 53 -232 37 -373 -19 -170 -75 -313 -191 -494 -14 -22 -9 -28 140 -171
l154 -149 -12 -42 c-23 -74 -112 -150 -178 -151 -20 0 -71 48 -251 237 -33 35
-63 63 -67 63 -5 0 -45 -18 -89 -40 -118 -58 -204 -81 -333 -87 -265 -13 -482
77 -721 300 -53 50 -66 57 -78 47 -9 -7 -15 -29 -15 -50 0 -35 -3 -39 -37 -51
-52 -17 -122 -86 -219 -215 -92 -122 -159 -190 -199 -200 -43 -11 -98 3 -123
31 -24 28 -30 93 -12 139 15 41 87 113 200 200 132 102 177 148 192 197 11 37
13 39 53 39 33 0 47 6 70 30 20 21 38 30 60 30 22 0 41 10 65 35 19 19 36 35
39 35 4 0 26 -19 51 -41 127 -116 283 -205 407 -233 136 -31 337 -15 441 35
l42 21 -128 131 c-71 73 -214 220 -318 327 -104 107 -250 258 -325 335 -75 77
-149 155 -164 173 -16 17 -34 32 -40 32 -6 0 -60 -48 -118 -107 l-107 -108
-137 138 -138 138 170 166 c94 91 212 207 262 257 l93 90 77 -23 c43 -13 135
-38 206 -57 70 -18 134 -37 142 -41 17 -10 20 -7 -167 -172 -65 -57 -118 -106
-118 -107 0 -4 547 -545 838 -829 90 -88 170 -160 179 -160 26 0 102 152 118
240 29 152 12 349 -46 531 -63 199 -151 337 -329 515 -130 130 -139 139 -280
253 -134 110 -132 106 -52 76z"/>
</g>
</svg>
